<svg width="10" height="12" viewBox="0 0 10 12" fill="none" xmlns="http://www.w3.org/2000/svg">
<path d="M4.99999 0.166748C2.54999 0.166748 0.333328 2.04508 0.333328 4.95008C0.333328 6.80508 1.7625 8.98675 4.615 11.5009C4.83666 11.6934 5.16916 11.6934 5.39083 11.5009C8.23749 8.98675 9.66666 6.80508 9.66666 4.95008C9.66666 2.04508 7.44999 0.166748 4.99999 0.166748ZM4.99999 6.00008C4.35833 6.00008 3.83333 5.47508 3.83333 4.83342C3.83333 4.19175 4.35833 3.66675 4.99999 3.66675C5.64166 3.66675 6.16666 4.19175 6.16666 4.83342C6.16666 5.47508 5.64166 6.00008 4.99999 6.00008Z" fill="#BDBDBD"/>
</svg>
